<svg width="25" height="25" viewBox="0 0 25 25" fill="none" xmlns="http://www.w3.org/2000/svg">
<path d="M12.4475 1.01395C14.0333 1.01395 15.5479 1.32395 16.9913 1.94395C18.4346 2.56395 19.6796 3.39728 20.7263 4.44395C21.7729 5.49061 22.6063 6.73561 23.2263 8.17895C23.8463 9.62228 24.1563 11.1369 24.1563 12.7227C24.1563 14.8369 23.6329 16.7935 22.5863 18.5927C21.5396 20.3919 20.1167 21.8148 18.3175 22.8614C16.5183 23.9081 14.5617 24.4314 12.4475 24.4314C11.2892 24.4314 10.1813 24.2789 9.12375 23.9739C9.71292 23.0181 10.1092 22.1744 10.3125 21.4427L11.1363 18.2414C11.3396 18.6273 11.7158 18.9677 12.265 19.2627C12.8142 19.5577 13.3933 19.7052 14.0025 19.7052C15.2225 19.7052 16.315 19.3544 17.28 18.6527C18.245 17.951 18.9921 16.9906 19.5213 15.7714C20.0504 14.5523 20.3146 13.1802 20.3138 11.6552C20.3138 9.84603 19.6175 8.27561 18.225 6.94394C16.8325 5.61228 15.0588 4.94645 12.9038 4.94645C11.5821 4.94645 10.3725 5.1702 9.275 5.6177C8.1775 6.0652 7.29334 6.64978 6.6225 7.37145C5.95167 8.09311 5.43834 8.87561 5.0825 9.71895C4.72667 10.5623 4.54875 11.411 4.54875 12.2652C4.54875 13.3219 4.74709 14.2469 5.14375 15.0402C5.54042 15.8335 6.135 16.3927 6.9275 16.7177C7.07 16.7785 7.19209 16.7835 7.29375 16.7327C7.39542 16.6819 7.46667 16.5852 7.5075 16.4427C7.65 15.9344 7.73125 15.6194 7.75125 15.4977C7.83292 15.2744 7.78209 15.061 7.59875 14.8577C7.07042 14.2685 6.80625 13.506 6.80625 12.5702C6.80625 11.0252 7.34 9.69895 8.4075 8.59145C9.475 7.48395 10.8725 6.9302 12.6 6.9302C14.125 6.9302 15.3142 7.34686 16.1675 8.1802C17.0208 9.01353 17.4479 10.101 17.4488 11.4427C17.4488 12.561 17.2963 13.5927 16.9913 14.5377C16.6863 15.4827 16.2492 16.2398 15.68 16.8089C15.1108 17.3781 14.4604 17.6627 13.7288 17.6627C13.1188 17.6627 12.6208 17.4389 12.235 16.9914C11.8492 16.5439 11.7271 16.0152 11.8688 15.4052C11.9504 15.1202 12.0571 14.7544 12.1888 14.3077C12.3204 13.861 12.4321 13.4798 12.5238 13.1639C12.6154 12.8481 12.7017 12.5077 12.7825 12.1427C12.8633 11.7777 12.9042 11.4727 12.905 11.2277C12.905 10.7194 12.7729 10.3027 12.5088 9.9777C12.2446 9.6527 11.8583 9.4902 11.35 9.4902C10.72 9.4902 10.1913 9.77978 9.76375 10.3589C9.33625 10.9381 9.12292 11.6648 9.12375 12.5389C9.12375 12.8639 9.14917 13.1789 9.2 13.4839C9.25084 13.7889 9.30667 14.0127 9.3675 14.1552L9.45875 14.3689C8.62542 17.9873 8.11709 20.1114 7.93375 20.7414C7.77125 21.5139 7.71042 22.4185 7.75125 23.4552C5.65709 22.5202 3.96459 21.0869 2.67375 19.1552C1.38292 17.2235 0.737503 15.0789 0.737503 12.7214C0.737503 9.48895 1.88084 6.72936 4.1675 4.4427C6.45417 2.15603 9.21375 1.0127 12.4463 1.0127L12.4475 1.01395Z" fill="#444444"/>
</svg>
