<svg width="17" height="66" viewBox="0 0 17 66" fill="none" xmlns="http://www.w3.org/2000/svg">
<path d="M9.60597 65.2188H6.45544L8.00994 64.7357C11.9188 63.5231 14.0203 61.9913 13.93 60.4233C13.838 58.8441 11.527 57.3224 7.42316 56.137C2.76688 54.7928 0.203125 53.0582 0.203125 51.2518C0.203125 49.4454 2.76688 47.7101 7.42316 46.3665C11.6299 45.1523 13.9463 43.5916 13.9445 41.9734C13.9445 40.3551 11.6281 38.7951 7.42316 37.5808C2.76688 36.2366 0.203125 34.5009 0.203125 32.6945C0.203125 30.8886 2.76869 29.154 7.42316 27.8103C11.6299 26.5961 13.9463 25.0355 13.9445 23.4172C13.9445 21.799 11.6281 20.2389 7.42316 19.0252C2.76688 17.681 0.203125 15.9458 0.203125 14.1394C0.203125 12.333 2.76688 10.5978 7.42316 9.25416C11.5053 8.07607 13.8145 6.56235 13.9282 4.99269C14.0402 3.4366 11.9892 1.91215 8.15257 0.700156L6.62876 0.21875H9.75582L10.0212 0.3052C14.0077 1.59912 16.2031 3.2168 16.2031 4.86161C16.2031 6.66688 13.6394 8.40209 8.98308 9.74686C4.77636 10.9611 2.45995 12.5212 2.45995 14.1394C2.45995 15.7577 4.77636 17.3177 8.98308 18.532C13.6394 19.8762 16.2031 21.6114 16.2031 23.4172C16.2031 25.2236 13.6376 26.9588 8.98308 28.3025C4.77636 29.5162 2.45995 31.0762 2.45995 32.6945C2.45995 34.3133 4.77636 35.8733 8.98308 37.0881C13.6394 38.4318 16.2049 40.167 16.2031 41.9734C16.2031 43.7798 13.6394 45.515 8.98308 46.8581C4.77636 48.0723 2.45995 49.6329 2.45995 51.2512C2.45995 52.8694 4.77636 54.4295 8.98308 55.6437C13.4877 56.9439 16.0442 58.622 16.1833 60.368C16.3205 62.0987 14.0781 63.7909 9.86957 65.1334L9.60597 65.2188Z" fill="white"/>
</svg>
